<svg xmlns="http://www.w3.org/2000/svg" xmlns:xlink="http://www.w3.org/1999/xlink" id="Layer_1" x="0px" y="0px" viewBox="0 0 200 200" width="200px" height="200px" style="enable-background:new 0 0 200 200;" xml:space="preserve"><style type="text/css">	.st0{fill:#FFFFFF;}	.st1{fill:#2E338C;}	.st2{fill:#19A077;}</style><path class="st0" d="M148.7,51.7c-21.7,0-43.4,0-65.1,0c-1.4,0-1.9,0.4-2.3,1.7c-6,19.9-12,39.7-18.1,59.6 c-3.6,11.7-7.1,23.4-10.7,35.2c0.4,0,0.6,0.1,0.8,0.1c22.7,0,45.4,0,68,0c1.4,0,1.5-0.7,1.8-1.6c2.9-10.1,5.8-20.1,8.7-30.2 c6.1-21.1,12.1-42.2,18.2-63.3C150.1,52.2,150.2,51.7,148.7,51.7z"></path><path class="st0" d="M87.8,13.8c0.3,3.2,0.5,6.1,0.8,9.1c0.1,1.1-0.1,1.7-1.5,1.6c-0.4,0-0.9,0-1.3,0.1c-1.3,0.3-1.8-0.1-1.8-1.4 c-0.3-4.4-0.7-8.8-1.1-13.3c-0.1-1.2,0.3-1.5,1.5-1.6c2.2-0.3,3.7,0.3,5,2c2.1,2.7,4.8,5,6.8,7.8c-0.3-3.2-0.6-6.3-0.9-9.4 c-0.1-0.8,0-1.3,1-1.2c0.5,0,1-0.1,1.5-0.2c1.6-0.3,2,0.2,2.1,1.7c0.2,4.4,0.7,8.7,1.1,13.1c0.1,1.1-0.2,1.3-1.4,1.5 c-2.1,0.4-3.6,0-4.9-1.7C92.6,19.1,90,16.8,87.8,13.8z"></path><path class="st0" d="M135.6,179.1c1.1,2.2,2.1,4.5,3.2,6.7c0.5,1,0.3,1.5-0.8,1.8c-0.5,0.2-1.1,0.4-1.6,0.7c-0.6,0.3-1,0.3-1.3-0.4 c-1.9-4.1-3.8-8.1-5.8-12.1c-0.1-0.3-0.3-0.5-0.2-0.8c0.4-0.7,3.8-1.5,4.7-1c3,1.6,6.1,3.2,9.6,5.1c-1.3-2.7-2.2-5-3.4-7.2 c-0.7-1.3,0-1.7,1.1-2c1-0.2,2-1.6,2.8,0.3c1.7,3.8,3.5,7.6,5.4,11.3c0.5,0.9,0.3,1.2-0.7,1.7c-1.8,0.9-3.3,0.9-5.1-0.2 c-2.5-1.6-5.1-2.8-7.7-4.2C135.8,178.9,135.7,179,135.6,179.1z"></path><path class="st0" d="M164.3,170.7c-4.6,0-8.7-3.8-8.5-8.1c0.1-4.3,4.5-8.2,8.9-8.1c1.2,0,1.8,0.3,1.2,1.6c-0.6,1.3-0.8,2.4-2.8,2.4 c-2,0-3.4,2.2-3.1,4.1c0.2,1.7,2.2,3.9,4.1,4.4c1.8,0.4,3.5-0.2,4.7-1.7c0.4-0.5,0.6-1.1,0.7-1.7c0.1-0.7,0.1-1.5-0.4-1.8 c-0.7-0.4-0.9,0.6-1.5,0.8c-0.9,0.4-1.1,2.3-2.8,0.8c-1.2-1.1-1.3-1.7,0.1-2.7c1.4-1,2.7-2.2,3.9-3.5c0.7-0.7,1.2-0.6,1.8,0.1 c2.2,2.4,3.4,4.9,2,8.1C171.2,168.4,167.6,170.7,164.3,170.7z"></path><path class="st0" d="M25.1,147.9c1.4-0.8,2.7-1.4,3.8-2.2c1.5-1.2,2-0.1,2.6,0.9c0.5,0.9,1.7,1.7-0.2,2.6c-3.7,2-7.4,4.2-11,6.4 c-1.1,0.6-1.6,0.6-2.1-0.5c-0.2-0.4-0.4-0.7-0.7-1.1c-0.7-0.8-0.7-1.4,0.4-1.9c1.2-0.6,2.3-1.3,3.4-2c0.7-0.4,0.8-0.7,0.4-1.4 c-2.3-3.9-2.3-3.9-6.4-1.6c-0.6,0.3-1.2,1.3-1.9,0.6c-0.8-0.8-1.4-1.9-1.9-2.9c-0.1-0.2,0.3-0.5,0.6-0.6c4-2.3,8.1-4.7,12.1-7.1 c0.5-0.3,0.8-0.3,1.2,0.2c2.2,2.5,2.2,2.7-0.8,4.4c-2.6,1.5-2.6,1.5-1,3.9C24,146.5,24.6,147.2,25.1,147.9z"></path><path class="st0" d="M150.6,26c-1.4-3.2-3.6-4.4-6.1-3.6c-2.4,0.7-4,3.7-3.3,6c0.7,2.3,3.1,3.3,6.7,2.7c-0.7,1.3-1.3,2.4-1.9,3.5 c-0.3,0.6-0.8,0.7-1.4,0.6c-3.9-0.4-7.3-3.1-8.1-6.5c-0.8-3.7,1.2-7.8,4.7-9.7c3.5-1.8,7.4-1.3,10.5,1.3c1.1,1,1.4,1.8,0.5,3 C151.6,24.1,151.2,24.9,150.6,26z"></path><path class="st0" d="M22.6,71.7c-0.3-0.1-0.7-0.3-1-0.4c-4.4-1.9-8.7-3.8-13.1-5.6c-1.1-0.4-1.3-0.8-0.7-1.8 c1.2-2.2,2.3-4.5,3.4-6.8c0.7-1.5,1.5-0.5,2.3-0.2c0.7,0.3,2.1,0.3,1.2,1.7c-0.5,0.8-0.8,1.8-1.3,2.6c-0.6,1-0.7,1.5,0.6,2.1 c1.4,0.6,1.8,0,2.1-1c0.2-0.6,0.6-1.1,0.8-1.6c0.4-1.6,1.2-1.6,2.7-1c1.6,0.7,1.3,1.3,0.7,2.4c-1.6,3.2-1.6,3.2,1.8,4.6 c2.9,1.2,3.1,2,1.2,4.5C23.2,71.4,23.1,71.7,22.6,71.7z"></path><path class="st0" d="M189.3,142.5c0,3.2-2.4,6.5-5.1,7.1c-1.8,0.4-1.5-1.4-2.2-2.2c-0.8-0.9,0.4-0.8,0.9-1c1-0.4,2-0.8,2.5-1.8 c0.4-0.8,0.5-1.5-0.2-2.1c-0.7-0.6-1.5-0.5-2.3,0c-0.7,0.5-1.3,1.1-2,1.7c-2,1.5-3.5,1.6-5.4,0.5c-1.9-1.2-2.7-3.1-2.2-5.1 c0.4-1.4,1.3-2.6,2.4-3.6c1.7-1.4,1.8-1.3,3.2,0.3c0.7,0.8,0.7,1.3-0.4,1.6c-0.4,0.1-0.8,0.5-1,0.8c-0.6,0.7-1.2,1.5-0.4,2.4 c0.9,0.9,1.6,0.1,2.3-0.4c0.5-0.4,0.9-0.8,1.4-1.2c1.5-1.3,3.1-1.8,5.1-1C188,139.4,189.2,140.9,189.3,142.5z"></path><path class="st0" d="M66.8,189.3c-1.8-0.7-3.5-1.3-5.2-2c-3.6-1.3-3.6-1.3-2.1-4.7c1.3-3.1,2.7-6.2,4-9.3c0.4-1,0.8-1.4,1.9-0.8 c0.4,0.2,0.9,0.4,1.4,0.6c1.2,0.3,1.3,0.8,0.8,1.8c-1.3,2.7-2.4,5.6-3.6,8.3c-0.4,0.8-0.3,1.3,0.7,1.6c0.7,0.2,1.5,0.4,2.1,0.8 c0.6,0.3,1.7,0.2,1.6,1c-0.1,0.9-0.7,1.8-1.1,2.7C67.2,189.2,67,189.3,66.8,189.3z"></path><path class="st0" d="M42.5,24.3c0.6-0.1,0.7,0.3,0.9,0.6c3,3.9,6,7.8,9,11.7c0.5,0.6,0.3,0.8-0.2,1.3c-2.9,2.4-2.9,2.4-5.1-0.6 c-2.4-3.2-4.8-6.3-7.3-9.5c-0.7-0.9-0.8-1.4,0.3-1.9C41,25.5,41.8,24.8,42.5,24.3z"></path><path class="st0" d="M197.8,105.5c0,2.5-2.2,4.6-4.9,4.6c-2.7,0-4.9-2.2-4.8-4.7c0-2.4,2.2-4.4,4.8-4.5 C195.7,101,197.8,103,197.8,105.5z"></path><path class="st0" d="M6.9,101c2.7,0,4.9,2.1,4.9,4.6c0,2.5-2.4,4.6-5,4.5C4.2,110,2,108,2,105.6C2,103.1,4.2,101,6.9,101z"></path><path class="st0" d="M118.5,192.5c0.1,0.3-0.1,0.4-0.7,0.6c-3.1,1.1-3.6,0.8-4.2-2.2c-0.7-3.5-1.4-6.9-2.2-10.4 c-0.3-1.2,0-1.8,1.3-1.9c0.6,0,1.1-0.2,1.7-0.3c0.7-0.2,1-0.1,1.2,0.6C116.6,183.4,117.5,187.8,118.5,192.5z"></path><path class="st1" d="M78.2,137.2c1.1-3.1,2.1-6,3.1-8.9c1-2.9,2-5.8,3.1-8.9c-5,0-9.8,0-14.6,0c-2.8,0-2.8,0-1.9-2.4 c2.6-7.4,5.2-14.8,7.7-22.2c0.4-1.3,1.1-1.6,2.4-1.6c4.9,0.1,9.9-0.1,14.8,0.1c1.7,0.1,2.1-0.6,2.4-1.9C96.9,85.2,98.4,79,101,73 c1-2.3,2.3-4.6,3.9-6.6c4.9-6.2,15.7-5.8,20,0.8c1.4,2.2,2.3,4.6,2.5,7.3c0.2,3.3-1.1,6-4.1,7.8c-1.7,1-3.6,1.3-5.5,0.5 c-1.8-0.8-2.5-2.3-2.5-4.1c0-1.3,0-2.5-0.6-3.7c-1-1.9-2.7-2.2-4.3-0.7c-2.4,2-2.8,6.2-0.9,9c0.4,0.6,1,1.3,1.6,1.8 c2.2,2,3.2,4.3,2.9,7.1c-0.1,1.1,0.3,1.4,1.5,1.4c4.6-0.1,9.3,0,13.9-0.1c1.4,0,1.5,0.3,1.2,1.5c-2.4,7.7-4.8,15.4-7.1,23.1 c-0.3,1.1-0.8,1.4-2,1.4c-4.8-0.1-9.6,0-14.5,0c-1.1,0-1.7,0.3-2,1.4c-1.7,5.1-3.6,10.1-5.4,15.1c-0.2,0.7-0.4,1.3-1.5,1.3 C91.4,137.1,85,137.2,78.2,137.2z"></path><path class="st0" d="M180.3,51.5c-4.9,0-8.9,3.9-8.9,8.6c0,4.9,4.3,8.9,9.4,8.8c5-0.1,8.9-3.9,8.9-8.6 C189.7,55.5,185.4,51.5,180.3,51.5z M180,64.7c-2.4,0-4.5-1.9-4.5-4.1c-0.1-2.5,2.7-4.9,5.6-4.9c2.5,0,4.4,1.8,4.4,4 C185.6,62.4,182.9,64.8,180,64.7z"></path><path class="st0" d="M91.8,179.3c-1.9-0.3-3.8-0.5-5.7-0.8c-1.1-0.2-1.4,0.2-1.5,1.1c-0.5,4.2-1,8.4-1.6,12.7c-0.1,0.8,0.2,1,1,1.1 c2,0.2,3.9,0.4,5.3,0.6c5.3,0.2,8.4-2.3,9-6.5C98.8,183.3,96.4,180.1,91.8,179.3z M92.4,189.8c-0.8,0.7-1.8,0.8-3.1,0.8 c-1.4,0.3-1.8-0.3-1.5-1.8c0.4-1.9,0.5-3.8,0.8-5.7c0.1-0.5,0-1,0.8-0.9c1.7,0.3,3.5,0.6,4.2,2.4C94.2,186.2,93.6,188.8,92.4,189.8z "></path><path class="st0" d="M41.4,159.5c-4.6,0-8.3,3.5-8.3,7.8c0,4.5,3.8,8.1,8.7,8.1c4.6,0,8.3-3.4,8.3-7.7 C50.1,163.2,46.1,159.5,41.4,159.5z M41.1,171.8c-2.2,0-4-1.8-4-3.8c0-2.4,2.6-4.8,5.1-4.8c2.2,0.1,3.9,1.9,3.9,3.9 C46,169.5,43.6,171.8,41.1,171.8z"></path><path class="st0" d="M125.6,96.8c-1.8,6.2-3.6,12.1-5.3,18c-0.3,1.2-1.1,1.1-2,1.1c-9.6,0-19.1,0-28.7,0c-5.8,0-11.6,0-17.6,0 c1.5-4.2,2.9-8.3,4.4-12.3c0.8-2.2,0.9-5.4,2.7-6.5c1.8-1.1,4.8-0.3,7.3-0.3c12.3,0,24.5,0,36.8,0C124,96.8,124.7,96.8,125.6,96.8z"></path><path class="st2" d="M98.8,106.7c0.2-0.9,0.4-1.7,0.5-2.6c0.1-0.9,0.8-0.8,1.4-0.7c0.9,0.1,0.5,0.7,0.4,1.1 c-0.2,1.5-0.5,3.1-0.8,4.6c-0.1,0.5,0,1.1-0.9,1.1c-0.8,0-1.5,0.1-1.8-0.9c-0.3-0.9-0.8-1.7-1.4-3.1c-0.2,1.3-0.5,2.2-0.5,3 c-0.1,0.9-0.6,1.1-1.4,1c-1.1-0.1-0.5-0.7-0.5-1.2c0.2-1.5,0.4-3,0.7-4.4c0.1-0.5,0-1.2,1-1.2c0.8,0,1.5,0,1.8,1 c0.3,0.8,0.7,1.7,1.1,2.5C98.6,106.7,98.7,106.7,98.8,106.7z"></path><path class="st2" d="M110.2,108.4c-0.3,0.8,0.1,1.6-1,1.8c-1.3,0.2-2.4,0.1-3.4-0.7c-1.2-1.1-1.3-3.3-0.2-4.8 c0.9-1.3,3.1-1.9,4.6-1.3c0.7,0.3,0.8,0.7,0.5,1.3c-0.1,0.3,0.1,0.9-0.7,0.6c-1.1-0.5-2.1-0.5-2.9,0.5c-0.5,0.7-0.6,1.5-0.1,2.2 C107.9,109,109,108.7,110.2,108.4z"></path><path class="st2" d="M84,104.1c0.1,0.8-0.5,1-1.2,1c-0.4,0-1-0.2-1.1,0.4c-0.1,0.7,0.5,0.6,0.9,0.6c0.4,0,1,0,0.9,0.6 c-0.1,0.5-0.2,1-0.9,0.9c-1.4-0.3-1.4,0.7-1.5,1.5c-0.1,0.9-0.5,1.3-1.5,1.1c-1.1-0.2-0.5-0.9-0.4-1.4c0.2-1.5,0.3-3,0.7-4.4 c0.5-2,2.2-0.6,3.3-1C83.7,103.2,84.1,103.4,84,104.1z"></path><path class="st2" d="M87.4,109.1c0.3-1.6,0.6-3.3,0.8-4.9c0.1-0.9,0.7-0.8,1.3-0.8c0.9,0,0.7,0.6,0.6,1c-0.2,1.7-0.6,3.4-0.8,5.1 c-0.1,0.8-0.7,0.7-1.3,0.7C87.1,110.2,87.4,109.6,87.4,109.1z"></path><path class="st2" d="M118.3,103.2c-2.3,0-4.2,1.6-4.2,3.8c0,1.9,1.5,3.3,3.5,3.3c2.3,0,4.1-1.7,4.1-3.9 C121.8,104.5,120.5,103.3,118.3,103.2z M117.8,108.6c-1.1,0.1-1.6-0.7-1.6-1.6c0-1.1,0.5-1.9,1.9-2.1c1,0,1.7,0.6,1.7,1.5 C119.9,107.6,119.2,108.6,117.8,108.6z"></path></svg>